<svg id="Layer_1" data-name="Layer 1" xmlns="http://www.w3.org/2000/svg" viewBox="0 0 465.78 576"><defs><style>.cls-1,.cls-2{fill:#fff;}.cls-2{stroke:#231f20;stroke-miterlimit:10;}</style></defs><title>v0_white</title><path class="cls-1" d="M444.18,360H382.45a7.2,7.2,0,0,0-6.44,4L273.22,569.56a3.6,3.6,0,0,1-6.44,0L164,364a7.2,7.2,0,0,0-6.44-4H95.82a3.61,3.61,0,0,0-3.22,5.21L232,644a7.2,7.2,0,0,0,6.44,4h63.1a7.2,7.2,0,0,0,6.44-4L447.4,365.21A3.61,3.61,0,0,0,444.18,360Z" transform="translate(-92.22 -72)"/><path class="cls-1" d="M378,648a135,135,0,0,1-29.45-3.06,3.61,3.61,0,0,1-2.46-5.14L376,580a7.2,7.2,0,0,1,6.44-4H450c36,0,36-36,36-36V294.1a1.44,1.44,0,0,0-2.73-.64L470,320a7.2,7.2,0,0,1-6.44,4H401.82a3.6,3.6,0,0,1-3.21-5.21l79.48-159a3.58,3.58,0,0,0-.38-3.82c-5.23-6.61-13.77-12-27.71-12H378c-36,0-36,36-36,36V320.4a3.6,3.6,0,0,0,3.6,3.6h12.07a1.44,1.44,0,0,1,1.29,2.08L272.17,499.66l0,.07a1.13,1.13,0,0,1-2.14-.51V180c0-8.59.91-42.64,27-72,31.3-35.21,74.19-36,81-36h72c6.81,0,49.7.79,81,36,26.09,29.36,27,63.41,27,72V540s0,108-108,108H378" transform="translate(-92.22 -72)"/><path class="cls-2" d="M450,324" transform="translate(-92.22 -72)"/><path class="cls-2" d="M432,360" transform="translate(-92.22 -72)"/></svg>